<svg width="40" height="40" viewBox="0 0 40 40" fill="none" xmlns="http://www.w3.org/2000/svg">
<rect width="40" height="40" rx="20" fill="#F7F7FC"/>
<g clip-path="url(#clip0_35_12311)">
<path d="M9.18533 13.1942L15.5879 19.5555L9.18533 25.9169C9.06959 25.675 8.99937 25.4075 8.99937 25.122V13.9891C8.99937 13.7035 9.06959 13.4361 9.18533 13.1942Z" fill="#6D6D6D"/>
<path d="M10.8557 12.1337H28.2559C28.5415 12.1337 28.8089 12.2039 29.0508 12.3196L20.8676 20.4616C20.1441 21.1851 18.9675 21.1851 18.2439 20.4616L10.0608 12.3196C10.3027 12.2039 10.5701 12.1337 10.8557 12.1337Z" fill="#6D6D6D"/>
<path d="M29.9254 13.1942C30.0411 13.4361 30.1113 13.7035 30.1113 13.9891V25.122C30.1113 25.4076 30.0411 25.675 29.9254 25.9169L23.5228 19.5555L29.9254 13.1942Z" fill="#6D6D6D"/>
<path d="M16.4633 20.4302L17.3693 21.3362C18.5749 22.5418 20.5367 22.5418 21.7423 21.3362L22.6482 20.4302L29.0508 26.7915C28.8089 26.9072 28.5415 26.9775 28.2559 26.9775H10.8557C10.5701 26.9775 10.3027 26.9072 10.0608 26.7915L16.4633 20.4302Z" fill="#6D6D6D"/>
</g>
<defs>
<clipPath id="clip0_35_12311">
<rect width="21.1111" height="21.1111" fill="white" transform="matrix(-1 0 0 1 30.1113 9)"/>
</clipPath>
</defs>
</svg>
