<svg width="40" height="40" viewBox="0 0 40 40" fill="none" xmlns="http://www.w3.org/2000/svg">
<rect width="40" height="40" rx="20" fill="#F7F7FC"/>
<g clip-path="url(#clip0_35_12330)">
<path d="M19.9974 10.5557C16.0921 10.5557 12.9141 13.7558 12.9141 17.6902C12.9141 23.2805 19.3316 29.0526 19.6047 29.295C19.7172 29.395 19.8573 29.4446 19.9974 29.4446C20.1375 29.4446 20.2776 29.395 20.3901 29.2958C20.6632 29.0526 27.0807 23.2805 27.0807 17.6902C27.0807 13.7558 23.9027 10.5557 19.9974 10.5557ZM19.9974 21.5742C17.8275 21.5742 16.0622 19.8089 16.0622 17.639C16.0622 15.4691 17.8275 13.7038 19.9974 13.7038C22.1673 13.7038 23.9326 15.4691 23.9326 17.639C23.9326 19.8089 22.1673 21.5742 19.9974 21.5742Z" fill="#6D6D6D"/>
</g>
<defs>
<clipPath id="clip0_35_12330">
<rect width="18.8889" height="18.8889" fill="white" transform="translate(10.5527 10.5557)"/>
</clipPath>
</defs>
</svg>
