<svg width="40" height="40" viewBox="0 0 40 40" fill="none" xmlns="http://www.w3.org/2000/svg">
<rect width="40" height="40" rx="20" fill="#F7F7FC"/>
<g clip-path="url(#clip0_35_12298)">
<path d="M24.2051 23.2304C23.5517 22.5853 22.736 22.5853 22.0867 23.2304C21.5915 23.7215 21.0962 24.2126 20.6093 24.712C20.4761 24.8494 20.3638 24.8785 20.2014 24.7869C19.881 24.6121 19.5397 24.4706 19.2317 24.2792C17.7959 23.3761 16.5932 22.2149 15.5277 20.9081C14.9992 20.2589 14.5289 19.5639 14.2001 18.7814C14.1335 18.6233 14.146 18.5192 14.275 18.3902C14.7703 17.9116 15.253 17.4205 15.74 16.9294C16.4184 16.2469 16.4184 15.4478 15.7358 14.7611C15.3488 14.3699 14.9617 13.987 14.5747 13.5958C14.1751 13.1963 13.7798 12.7926 13.3761 12.3972C12.7227 11.7605 11.907 11.7605 11.2577 12.4014C10.7583 12.8925 10.2797 13.396 9.77194 13.8788C9.30166 14.3241 9.06444 14.8693 9.01449 15.5061C8.93542 16.5424 9.18929 17.5204 9.54721 18.4735C10.2797 20.4462 11.3951 22.1983 12.7476 23.8047C14.5747 25.9772 16.7555 27.696 19.3067 28.9363C20.4553 29.4939 21.6456 29.9226 22.9399 29.9934C23.8305 30.0433 24.6046 29.8186 25.2247 29.1235C25.6493 28.6491 26.1279 28.2163 26.5773 27.7626C27.2432 27.0884 27.2474 26.2727 26.5857 25.6068C25.7949 24.8119 25 24.0212 24.2051 23.2304Z" fill="#6D6D6D"/>
<path d="M23.4098 19.9135L24.9455 19.6513C24.7042 18.2404 24.0383 16.9627 23.027 15.9473C21.9574 14.8777 20.6048 14.2035 19.1149 13.9954L18.8984 15.5394C20.0513 15.7017 21.1 16.2219 21.9282 17.0501C22.7107 17.8326 23.2226 18.8231 23.4098 19.9135Z" fill="#6D6D6D"/>
<path d="M25.8104 13.2379C24.0375 11.465 21.7943 10.3454 19.318 10L19.1016 11.544C21.2407 11.8437 23.1801 12.8134 24.7117 14.3408C26.1642 15.7932 27.1172 17.6286 27.4626 19.6471L28.9983 19.3849C28.5947 17.0459 27.4918 14.9234 25.8104 13.2379Z" fill="#6D6D6D"/>
</g>
<defs>
<clipPath id="clip0_35_12298">
<rect width="20" height="20" fill="white" transform="translate(9 10)"/>
</clipPath>
</defs>
</svg>
